<mxfile host="app.diagrams.net" modified="2021-07-20T13:00:32.871Z" agent="5.0 (Windows NT 10.0; Win64; x64) AppleWebKit/537.36 (KHTML, like Gecko) Chrome/90.0.4430.212 Safari/537.36 OPR/76.0.4017.227" etag="Dg45DViR6aiulxrrVhgG" version="14.9.0" type="github">
  <diagram id="qVgtE3y31zOZgSMEpOM5" name="Page-1">
    <mxGraphModel dx="1509" dy="836" grid="1" gridSize="10" guides="1" tooltips="1" connect="1" arrows="1" fold="1" page="1" pageScale="1" pageWidth="850" pageHeight="1100" background="#EEEEEE" math="0" shadow="0">
      <root>
        <mxCell id="0" />
        <mxCell id="1" parent="0" />
        <mxCell id="tixU7GhihtFyFwXV-NdT-1" value="Localidad" style="swimlane;fontStyle=0;childLayout=stackLayout;horizontal=1;startSize=26;horizontalStack=0;resizeParent=1;resizeParentMax=0;resizeLast=0;collapsible=1;marginBottom=0;rounded=0;sketch=0;fontColor=#1A1A1A;strokeColor=#909090;fillColor=#F5AB50;swimlaneFillColor=#ffffff;" vertex="1" parent="1">
          <mxGeometry x="470" y="240" width="140" height="78" as="geometry" />
        </mxCell>
        <mxCell id="tixU7GhihtFyFwXV-NdT-2" value="nombre" style="text;strokeColor=none;fillColor=none;align=left;verticalAlign=top;spacingLeft=4;spacingRight=4;overflow=hidden;rotatable=0;points=[[0,0.5],[1,0.5]];portConstraint=eastwest;fontStyle=4" vertex="1" parent="tixU7GhihtFyFwXV-NdT-1">
          <mxGeometry y="26" width="140" height="26" as="geometry" />
        </mxCell>
        <mxCell id="tixU7GhihtFyFwXV-NdT-3" value="poblacion" style="text;strokeColor=none;fillColor=none;align=left;verticalAlign=top;spacingLeft=4;spacingRight=4;overflow=hidden;rotatable=0;points=[[0,0.5],[1,0.5]];portConstraint=eastwest;" vertex="1" parent="tixU7GhihtFyFwXV-NdT-1">
          <mxGeometry y="52" width="140" height="26" as="geometry" />
        </mxCell>
        <mxCell id="tixU7GhihtFyFwXV-NdT-7" value="Provincia" style="swimlane;fontStyle=0;childLayout=stackLayout;horizontal=1;startSize=26;horizontalStack=0;resizeParent=1;resizeParentMax=0;resizeLast=0;collapsible=1;marginBottom=0;rounded=0;sketch=0;fontColor=#1A1A1A;strokeColor=#909090;fillColor=#F5AB50;swimlaneFillColor=#ffffff;" vertex="1" parent="1">
          <mxGeometry x="100" y="318" width="140" height="156" as="geometry" />
        </mxCell>
        <mxCell id="tixU7GhihtFyFwXV-NdT-21" value="idProvincia" style="text;strokeColor=none;fillColor=none;align=left;verticalAlign=top;spacingLeft=4;spacingRight=4;overflow=hidden;rotatable=0;points=[[0,0.5],[1,0.5]];portConstraint=eastwest;fontStyle=4" vertex="1" parent="tixU7GhihtFyFwXV-NdT-7">
          <mxGeometry y="26" width="140" height="26" as="geometry" />
        </mxCell>
        <mxCell id="tixU7GhihtFyFwXV-NdT-8" value="nombre" style="text;strokeColor=none;fillColor=none;align=left;verticalAlign=top;spacingLeft=4;spacingRight=4;overflow=hidden;rotatable=0;points=[[0,0.5],[1,0.5]];portConstraint=eastwest;fontStyle=0" vertex="1" parent="tixU7GhihtFyFwXV-NdT-7">
          <mxGeometry y="52" width="140" height="26" as="geometry" />
        </mxCell>
        <mxCell id="tixU7GhihtFyFwXV-NdT-9" value="poblacion" style="text;strokeColor=none;fillColor=none;align=left;verticalAlign=top;spacingLeft=4;spacingRight=4;overflow=hidden;rotatable=0;points=[[0,0.5],[1,0.5]];portConstraint=eastwest;" vertex="1" parent="tixU7GhihtFyFwXV-NdT-7">
          <mxGeometry y="78" width="140" height="26" as="geometry" />
        </mxCell>
        <mxCell id="tixU7GhihtFyFwXV-NdT-22" value="superficie" style="text;strokeColor=none;fillColor=none;align=left;verticalAlign=top;spacingLeft=4;spacingRight=4;overflow=hidden;rotatable=0;points=[[0,0.5],[1,0.5]];portConstraint=eastwest;" vertex="1" parent="tixU7GhihtFyFwXV-NdT-7">
          <mxGeometry y="104" width="140" height="26" as="geometry" />
        </mxCell>
        <mxCell id="tixU7GhihtFyFwXV-NdT-10" value="capital" style="text;strokeColor=none;fillColor=none;align=left;verticalAlign=top;spacingLeft=4;spacingRight=4;overflow=hidden;rotatable=0;points=[[0,0.5],[1,0.5]];portConstraint=eastwest;" vertex="1" parent="tixU7GhihtFyFwXV-NdT-7">
          <mxGeometry y="130" width="140" height="26" as="geometry" />
        </mxCell>
        <mxCell id="tixU7GhihtFyFwXV-NdT-13" style="edgeStyle=orthogonalEdgeStyle;curved=0;rounded=1;sketch=0;orthogonalLoop=1;jettySize=auto;html=1;exitX=0;exitY=0.5;exitDx=0;exitDy=0;fontColor=#1A1A1A;endArrow=none;endFill=0;" edge="1" parent="1" source="tixU7GhihtFyFwXV-NdT-11" target="tixU7GhihtFyFwXV-NdT-9">
          <mxGeometry relative="1" as="geometry" />
        </mxCell>
        <mxCell id="tixU7GhihtFyFwXV-NdT-14" style="edgeStyle=orthogonalEdgeStyle;curved=0;rounded=1;sketch=0;orthogonalLoop=1;jettySize=auto;html=1;exitX=1;exitY=0.5;exitDx=0;exitDy=0;entryX=0.009;entryY=0.808;entryDx=0;entryDy=0;entryPerimeter=0;fontColor=#1A1A1A;endArrow=none;endFill=0;strokeColor=#000000;" edge="1" parent="1" source="tixU7GhihtFyFwXV-NdT-11" target="tixU7GhihtFyFwXV-NdT-2">
          <mxGeometry relative="1" as="geometry" />
        </mxCell>
        <mxCell id="tixU7GhihtFyFwXV-NdT-20" style="edgeStyle=orthogonalEdgeStyle;curved=0;rounded=1;sketch=0;orthogonalLoop=1;jettySize=auto;html=1;exitX=0.5;exitY=0;exitDx=0;exitDy=0;fontColor=#1A1A1A;endArrow=none;endFill=0;strokeColor=#000000;entryX=0.491;entryY=0.969;entryDx=0;entryDy=0;entryPerimeter=0;" edge="1" parent="1" source="tixU7GhihtFyFwXV-NdT-11" target="tixU7GhihtFyFwXV-NdT-19">
          <mxGeometry relative="1" as="geometry">
            <mxPoint x="352" y="197" as="targetPoint" />
          </mxGeometry>
        </mxCell>
        <mxCell id="tixU7GhihtFyFwXV-NdT-11" value="pertenece" style="rhombus;whiteSpace=wrap;html=1;rounded=0;sketch=0;strokeColor=#d79b00;fillColor=#ffe6cc;" vertex="1" parent="1">
          <mxGeometry x="320" y="302" width="80" height="80" as="geometry" />
        </mxCell>
        <mxCell id="tixU7GhihtFyFwXV-NdT-16" value="Comunidad Autonoma" style="swimlane;fontStyle=0;childLayout=stackLayout;horizontal=1;startSize=26;horizontalStack=0;resizeParent=1;resizeParentMax=0;resizeLast=0;collapsible=1;marginBottom=0;rounded=0;sketch=0;fontColor=#1A1A1A;strokeColor=#909090;fillColor=#F5AB50;swimlaneFillColor=#ffffff;" vertex="1" parent="1">
          <mxGeometry x="240" y="120" width="140" height="104" as="geometry" />
        </mxCell>
        <mxCell id="tixU7GhihtFyFwXV-NdT-17" value="nombre" style="text;strokeColor=none;fillColor=none;align=left;verticalAlign=top;spacingLeft=4;spacingRight=4;overflow=hidden;rotatable=0;points=[[0,0.5],[1,0.5]];portConstraint=eastwest;fontStyle=4" vertex="1" parent="tixU7GhihtFyFwXV-NdT-16">
          <mxGeometry y="26" width="140" height="26" as="geometry" />
        </mxCell>
        <mxCell id="tixU7GhihtFyFwXV-NdT-18" value="poblacion" style="text;strokeColor=none;fillColor=none;align=left;verticalAlign=top;spacingLeft=4;spacingRight=4;overflow=hidden;rotatable=0;points=[[0,0.5],[1,0.5]];portConstraint=eastwest;" vertex="1" parent="tixU7GhihtFyFwXV-NdT-16">
          <mxGeometry y="52" width="140" height="26" as="geometry" />
        </mxCell>
        <mxCell id="tixU7GhihtFyFwXV-NdT-19" value="superficie" style="text;strokeColor=none;fillColor=none;align=left;verticalAlign=top;spacingLeft=4;spacingRight=4;overflow=hidden;rotatable=0;points=[[0,0.5],[1,0.5]];portConstraint=eastwest;" vertex="1" parent="tixU7GhihtFyFwXV-NdT-16">
          <mxGeometry y="78" width="140" height="26" as="geometry" />
        </mxCell>
      </root>
    </mxGraphModel>
  </diagram>
</mxfile>
